<mxfile modified="2021-09-03T08:51:08.127Z" host="app.diagrams.net" agent="5.0 (Macintosh; Intel Mac OS X 10_15_7) AppleWebKit/537.36 (KHTML, like Gecko) Chrome/92.0.4515.159 Safari/537.36" etag="PKUOpfYczwEEKEucvw2o" version="14.6.6" type="github">
  <diagram id="Ht1M8jgEwFfnCIfOTk4-" name="Page-1">
    <mxGraphModel dx="1186" dy="535" grid="1" gridSize="10" guides="1" tooltips="1" connect="1" arrows="1" fold="1" page="1" pageScale="1" pageWidth="1169" pageHeight="827" math="0" shadow="0">
      <root>
        <mxCell id="0" />
        <mxCell id="1" parent="0" />
        <mxCell id="L-UsCcMy-2WCmRjj-p1g-1" value="AWS HongKong 区域" style="points=[[0,0],[0.25,0],[0.5,0],[0.75,0],[1,0],[1,0.25],[1,0.5],[1,0.75],[1,1],[0.75,1],[0.5,1],[0.25,1],[0,1],[0,0.75],[0,0.5],[0,0.25]];outlineConnect=0;gradientColor=none;html=1;whiteSpace=wrap;fontSize=12;fontStyle=0;shape=mxgraph.aws4.group;grIcon=mxgraph.aws4.group_region;strokeColor=#147EBA;fillColor=none;verticalAlign=top;align=left;spacingLeft=30;fontColor=#147EBA;dashed=1;" vertex="1" parent="1">
          <mxGeometry x="240" y="50" width="670" height="1580" as="geometry" />
        </mxCell>
        <mxCell id="L-UsCcMy-2WCmRjj-p1g-2" value="" style="outlineConnect=0;fontColor=#232F3E;gradientColor=none;fillColor=#5A30B5;strokeColor=none;dashed=0;verticalLabelPosition=bottom;verticalAlign=top;align=center;html=1;fontSize=12;fontStyle=0;aspect=fixed;pointerEvents=1;shape=mxgraph.aws4.network_load_balancer;" vertex="1" parent="1">
          <mxGeometry x="560" y="190" width="50" height="50" as="geometry" />
        </mxCell>
        <mxCell id="L-UsCcMy-2WCmRjj-p1g-6" value="ap-east-1a 可用区" style="fillColor=none;strokeColor=#147EBA;dashed=1;verticalAlign=top;fontStyle=0;fontColor=#147EBA;" vertex="1" parent="1">
          <mxGeometry x="330" y="100" width="240" height="1500" as="geometry" />
        </mxCell>
        <mxCell id="L-UsCcMy-2WCmRjj-p1g-9" value="ap-east-1b 可用区" style="fillColor=none;strokeColor=#147EBA;dashed=1;verticalAlign=top;fontStyle=0;fontColor=#147EBA;" vertex="1" parent="1">
          <mxGeometry x="600" y="100" width="240" height="1500" as="geometry" />
        </mxCell>
        <mxCell id="L-UsCcMy-2WCmRjj-p1g-10" value="接入层" style="fillColor=#EFF0F3;strokeColor=none;dashed=0;verticalAlign=top;fontStyle=0;fontColor=#232F3D;" vertex="1" parent="1">
          <mxGeometry x="350" y="270" width="470" height="90" as="geometry" />
        </mxCell>
        <mxCell id="L-UsCcMy-2WCmRjj-p1g-11" value="" style="points=[[0,0,0],[0.25,0,0],[0.5,0,0],[0.75,0,0],[1,0,0],[0,1,0],[0.25,1,0],[0.5,1,0],[0.75,1,0],[1,1,0],[0,0.25,0],[0,0.5,0],[0,0.75,0],[1,0.25,0],[1,0.5,0],[1,0.75,0]];outlineConnect=0;fontColor=#232F3E;gradientColor=#F78E04;gradientDirection=north;fillColor=#D05C17;strokeColor=#ffffff;dashed=0;verticalLabelPosition=bottom;verticalAlign=top;align=center;html=1;fontSize=12;fontStyle=0;aspect=fixed;shape=mxgraph.aws4.resourceIcon;resIcon=mxgraph.aws4.compute;" vertex="1" parent="1">
          <mxGeometry x="423" y="300" width="30" height="30" as="geometry" />
        </mxCell>
        <mxCell id="L-UsCcMy-2WCmRjj-p1g-12" value="Nginx" style="text;html=1;strokeColor=none;fillColor=none;align=center;verticalAlign=middle;whiteSpace=wrap;rounded=0;" vertex="1" parent="1">
          <mxGeometry x="418" y="333" width="40" height="20" as="geometry" />
        </mxCell>
        <mxCell id="L-UsCcMy-2WCmRjj-p1g-13" value="" style="points=[[0,0,0],[0.25,0,0],[0.5,0,0],[0.75,0,0],[1,0,0],[0,1,0],[0.25,1,0],[0.5,1,0],[0.75,1,0],[1,1,0],[0,0.25,0],[0,0.5,0],[0,0.75,0],[1,0.25,0],[1,0.5,0],[1,0.75,0]];outlineConnect=0;fontColor=#232F3E;gradientColor=#F78E04;gradientDirection=north;fillColor=#D05C17;strokeColor=#ffffff;dashed=0;verticalLabelPosition=bottom;verticalAlign=top;align=center;html=1;fontSize=12;fontStyle=0;aspect=fixed;shape=mxgraph.aws4.resourceIcon;resIcon=mxgraph.aws4.compute;" vertex="1" parent="1">
          <mxGeometry x="715" y="300" width="30" height="30" as="geometry" />
        </mxCell>
        <mxCell id="L-UsCcMy-2WCmRjj-p1g-14" value="Nginx" style="text;html=1;strokeColor=none;fillColor=none;align=center;verticalAlign=middle;whiteSpace=wrap;rounded=0;" vertex="1" parent="1">
          <mxGeometry x="710" y="333" width="40" height="20" as="geometry" />
        </mxCell>
        <mxCell id="L-UsCcMy-2WCmRjj-p1g-15" value="接入层" style="fillColor=#EFF0F3;strokeColor=none;dashed=0;verticalAlign=top;fontStyle=0;fontColor=#232F3D;" vertex="1" parent="1">
          <mxGeometry x="350" y="160" width="470" height="90" as="geometry" />
        </mxCell>
        <mxCell id="L-UsCcMy-2WCmRjj-p1g-22" value="" style="points=[[0,0,0],[0.25,0,0],[0.5,0,0],[0.75,0,0],[1,0,0],[0,1,0],[0.25,1,0],[0.5,1,0],[0.75,1,0],[1,1,0],[0,0.25,0],[0,0.5,0],[0,0.75,0],[1,0.25,0],[1,0.5,0],[1,0.75,0]];outlineConnect=0;fontColor=#232F3E;gradientColor=#945DF2;gradientDirection=north;fillColor=#5A30B5;strokeColor=#ffffff;dashed=0;verticalLabelPosition=bottom;verticalAlign=top;align=center;html=1;fontSize=12;fontStyle=0;aspect=fixed;shape=mxgraph.aws4.resourceIcon;resIcon=mxgraph.aws4.elastic_load_balancing;" vertex="1" parent="1">
          <mxGeometry x="570" y="190" width="36" height="36" as="geometry" />
        </mxCell>
        <mxCell id="L-UsCcMy-2WCmRjj-p1g-23" value="接入层公有子网A" style="text;html=1;strokeColor=none;fillColor=none;align=center;verticalAlign=middle;whiteSpace=wrap;rounded=0;" vertex="1" parent="1">
          <mxGeometry x="353" y="160" width="107" height="20" as="geometry" />
        </mxCell>
        <mxCell id="L-UsCcMy-2WCmRjj-p1g-24" value="接入层公有子网B" style="text;html=1;strokeColor=none;fillColor=none;align=center;verticalAlign=middle;whiteSpace=wrap;rounded=0;" vertex="1" parent="1">
          <mxGeometry x="720" y="160" width="95" height="20" as="geometry" />
        </mxCell>
        <mxCell id="L-UsCcMy-2WCmRjj-p1g-26" value="接入层私有子网A" style="text;html=1;strokeColor=none;fillColor=none;align=center;verticalAlign=middle;whiteSpace=wrap;rounded=0;" vertex="1" parent="1">
          <mxGeometry x="350" y="270" width="107" height="20" as="geometry" />
        </mxCell>
        <mxCell id="L-UsCcMy-2WCmRjj-p1g-27" value="接入层私有子网B" style="text;html=1;strokeColor=none;fillColor=none;align=center;verticalAlign=middle;whiteSpace=wrap;rounded=0;" vertex="1" parent="1">
          <mxGeometry x="715" y="270" width="107" height="20" as="geometry" />
        </mxCell>
        <mxCell id="L-UsCcMy-2WCmRjj-p1g-28" value="Web 接口层" style="fillColor=#EFF0F3;strokeColor=none;dashed=0;verticalAlign=top;fontStyle=0;fontColor=#232F3D;" vertex="1" parent="1">
          <mxGeometry x="350" y="390" width="470" height="130" as="geometry" />
        </mxCell>
        <mxCell id="L-UsCcMy-2WCmRjj-p1g-29" value="Dubbo 服务层" style="fillColor=#EFF0F3;strokeColor=none;dashed=0;verticalAlign=top;fontStyle=0;fontColor=#232F3D;" vertex="1" parent="1">
          <mxGeometry x="356" y="540" width="470" height="210" as="geometry" />
        </mxCell>
        <mxCell id="L-UsCcMy-2WCmRjj-p1g-31" value="行情计算K线/形态层" style="fillColor=#EFF0F3;strokeColor=none;dashed=0;verticalAlign=top;fontStyle=0;fontColor=#232F3D;" vertex="1" parent="1">
          <mxGeometry x="355" y="867" width="470" height="205" as="geometry" />
        </mxCell>
        <mxCell id="L-UsCcMy-2WCmRjj-p1g-36" value="app" style="rounded=1;whiteSpace=wrap;html=1;" vertex="1" parent="1">
          <mxGeometry x="371.75" y="423" width="63.5" height="20" as="geometry" />
        </mxCell>
        <mxCell id="L-UsCcMy-2WCmRjj-p1g-38" value="sso-web" style="rounded=1;whiteSpace=wrap;html=1;" vertex="1" parent="1">
          <mxGeometry x="450" y="423" width="63.5" height="20" as="geometry" />
        </mxCell>
        <mxCell id="L-UsCcMy-2WCmRjj-p1g-39" value="auto-web" style="rounded=1;whiteSpace=wrap;html=1;" vertex="1" parent="1">
          <mxGeometry x="371.75" y="453" width="63.5" height="20" as="geometry" />
        </mxCell>
        <mxCell id="L-UsCcMy-2WCmRjj-p1g-41" value="pc" style="rounded=1;whiteSpace=wrap;html=1;" vertex="1" parent="1">
          <mxGeometry x="450" y="453" width="63.5" height="20" as="geometry" />
        </mxCell>
        <mxCell id="L-UsCcMy-2WCmRjj-p1g-42" value="Web接口层私有子网A" style="text;html=1;strokeColor=none;fillColor=none;align=center;verticalAlign=middle;whiteSpace=wrap;rounded=0;" vertex="1" parent="1">
          <mxGeometry x="350" y="390" width="120" height="20" as="geometry" />
        </mxCell>
        <mxCell id="L-UsCcMy-2WCmRjj-p1g-44" value="backend-web" style="rounded=1;whiteSpace=wrap;html=1;" vertex="1" parent="1">
          <mxGeometry x="393" y="490" width="90" height="20" as="geometry" />
        </mxCell>
        <mxCell id="L-UsCcMy-2WCmRjj-p1g-46" value="app" style="rounded=1;whiteSpace=wrap;html=1;" vertex="1" parent="1">
          <mxGeometry x="645" y="423" width="63.5" height="20" as="geometry" />
        </mxCell>
        <mxCell id="L-UsCcMy-2WCmRjj-p1g-47" value="sso-web" style="rounded=1;whiteSpace=wrap;html=1;" vertex="1" parent="1">
          <mxGeometry x="723.25" y="423" width="63.5" height="20" as="geometry" />
        </mxCell>
        <mxCell id="L-UsCcMy-2WCmRjj-p1g-48" value="auto-web" style="rounded=1;whiteSpace=wrap;html=1;" vertex="1" parent="1">
          <mxGeometry x="645" y="453" width="63.5" height="20" as="geometry" />
        </mxCell>
        <mxCell id="L-UsCcMy-2WCmRjj-p1g-49" value="pc" style="rounded=1;whiteSpace=wrap;html=1;" vertex="1" parent="1">
          <mxGeometry x="723.25" y="453" width="63.5" height="20" as="geometry" />
        </mxCell>
        <mxCell id="L-UsCcMy-2WCmRjj-p1g-50" value="Web接口层私有子网B" style="text;html=1;strokeColor=none;fillColor=none;align=center;verticalAlign=middle;whiteSpace=wrap;rounded=0;" vertex="1" parent="1">
          <mxGeometry x="695" y="390" width="120" height="20" as="geometry" />
        </mxCell>
        <mxCell id="L-UsCcMy-2WCmRjj-p1g-53" value="backend-web" style="rounded=1;whiteSpace=wrap;html=1;" vertex="1" parent="1">
          <mxGeometry x="685" y="490" width="90" height="20" as="geometry" />
        </mxCell>
        <mxCell id="L-UsCcMy-2WCmRjj-p1g-54" value="admin" style="rounded=1;whiteSpace=wrap;html=1;" vertex="1" parent="1">
          <mxGeometry x="371" y="570" width="62" height="20" as="geometry" />
        </mxCell>
        <mxCell id="L-UsCcMy-2WCmRjj-p1g-57" value="sso-service" style="rounded=1;whiteSpace=wrap;html=1;" vertex="1" parent="1">
          <mxGeometry x="453" y="570" width="70" height="20" as="geometry" />
        </mxCell>
        <mxCell id="L-UsCcMy-2WCmRjj-p1g-58" value="auth" style="rounded=1;whiteSpace=wrap;html=1;" vertex="1" parent="1">
          <mxGeometry x="371" y="600" width="62" height="20" as="geometry" />
        </mxCell>
        <mxCell id="L-UsCcMy-2WCmRjj-p1g-59" value="backend-service" style="rounded=1;whiteSpace=wrap;html=1;" vertex="1" parent="1">
          <mxGeometry x="453" y="600" width="90" height="20" as="geometry" />
        </mxCell>
        <mxCell id="L-UsCcMy-2WCmRjj-p1g-60" value="gateway" style="rounded=1;whiteSpace=wrap;html=1;" vertex="1" parent="1">
          <mxGeometry x="371" y="630" width="62" height="20" as="geometry" />
        </mxCell>
        <mxCell id="L-UsCcMy-2WCmRjj-p1g-61" value="notify" style="rounded=1;whiteSpace=wrap;html=1;" vertex="1" parent="1">
          <mxGeometry x="371" y="660" width="62" height="20" as="geometry" />
        </mxCell>
        <mxCell id="L-UsCcMy-2WCmRjj-p1g-62" value="job" style="rounded=1;whiteSpace=wrap;html=1;" vertex="1" parent="1">
          <mxGeometry x="453" y="630" width="62" height="20" as="geometry" />
        </mxCell>
        <mxCell id="L-UsCcMy-2WCmRjj-p1g-63" value="screener" style="rounded=1;whiteSpace=wrap;html=1;" vertex="1" parent="1">
          <mxGeometry x="453" y="660" width="62" height="20" as="geometry" />
        </mxCell>
        <mxCell id="L-UsCcMy-2WCmRjj-p1g-64" value="admin" style="rounded=1;whiteSpace=wrap;html=1;" vertex="1" parent="1">
          <mxGeometry x="642" y="570" width="62" height="20" as="geometry" />
        </mxCell>
        <mxCell id="L-UsCcMy-2WCmRjj-p1g-65" value="sso-service" style="rounded=1;whiteSpace=wrap;html=1;" vertex="1" parent="1">
          <mxGeometry x="724" y="570" width="70" height="20" as="geometry" />
        </mxCell>
        <mxCell id="L-UsCcMy-2WCmRjj-p1g-66" value="auth" style="rounded=1;whiteSpace=wrap;html=1;" vertex="1" parent="1">
          <mxGeometry x="642" y="600" width="62" height="20" as="geometry" />
        </mxCell>
        <mxCell id="L-UsCcMy-2WCmRjj-p1g-67" value="backend-service" style="rounded=1;whiteSpace=wrap;html=1;" vertex="1" parent="1">
          <mxGeometry x="724" y="600" width="90" height="20" as="geometry" />
        </mxCell>
        <mxCell id="L-UsCcMy-2WCmRjj-p1g-68" value="gateway" style="rounded=1;whiteSpace=wrap;html=1;" vertex="1" parent="1">
          <mxGeometry x="642" y="630" width="62" height="20" as="geometry" />
        </mxCell>
        <mxCell id="L-UsCcMy-2WCmRjj-p1g-69" value="notify" style="rounded=1;whiteSpace=wrap;html=1;" vertex="1" parent="1">
          <mxGeometry x="642" y="660" width="62" height="20" as="geometry" />
        </mxCell>
        <mxCell id="L-UsCcMy-2WCmRjj-p1g-70" value="job" style="rounded=1;whiteSpace=wrap;html=1;" vertex="1" parent="1">
          <mxGeometry x="724" y="630" width="62" height="20" as="geometry" />
        </mxCell>
        <mxCell id="L-UsCcMy-2WCmRjj-p1g-71" value="screener" style="rounded=1;whiteSpace=wrap;html=1;" vertex="1" parent="1">
          <mxGeometry x="724" y="660" width="62" height="20" as="geometry" />
        </mxCell>
        <mxCell id="L-UsCcMy-2WCmRjj-p1g-72" value="Dubbo层私有子网A" style="text;html=1;strokeColor=none;fillColor=none;align=center;verticalAlign=middle;whiteSpace=wrap;rounded=0;" vertex="1" parent="1">
          <mxGeometry x="353" y="540" width="120" height="20" as="geometry" />
        </mxCell>
        <mxCell id="L-UsCcMy-2WCmRjj-p1g-73" value="Dubbo层私有子网B" style="text;html=1;strokeColor=none;fillColor=none;align=center;verticalAlign=middle;whiteSpace=wrap;rounded=0;" vertex="1" parent="1">
          <mxGeometry x="705" y="540" width="120" height="20" as="geometry" />
        </mxCell>
        <mxCell id="L-UsCcMy-2WCmRjj-p1g-74" value="交易指令下单服务" style="rounded=1;whiteSpace=wrap;html=1;" vertex="1" parent="1">
          <mxGeometry x="371" y="690" width="142" height="20" as="geometry" />
        </mxCell>
        <mxCell id="L-UsCcMy-2WCmRjj-p1g-75" value="交易指令下单服务" style="rounded=1;whiteSpace=wrap;html=1;" vertex="1" parent="1">
          <mxGeometry x="642" y="690" width="142" height="20" as="geometry" />
        </mxCell>
        <mxCell id="L-UsCcMy-2WCmRjj-p1g-76" value="Push" style="rounded=1;whiteSpace=wrap;html=1;" vertex="1" parent="1">
          <mxGeometry x="371" y="720" width="142" height="20" as="geometry" />
        </mxCell>
        <mxCell id="L-UsCcMy-2WCmRjj-p1g-77" value="Push" style="rounded=1;whiteSpace=wrap;html=1;" vertex="1" parent="1">
          <mxGeometry x="644" y="720" width="142" height="20" as="geometry" />
        </mxCell>
        <mxCell id="L-UsCcMy-2WCmRjj-p1g-78" value="行情接收层" style="fillColor=#EFF0F3;strokeColor=none;dashed=0;verticalAlign=top;fontStyle=0;fontColor=#232F3D;" vertex="1" parent="1">
          <mxGeometry x="356" y="780" width="470" height="70" as="geometry" />
        </mxCell>
        <mxCell id="L-UsCcMy-2WCmRjj-p1g-79" value="行情接收层公有子网A" style="text;html=1;strokeColor=none;fillColor=none;align=center;verticalAlign=middle;whiteSpace=wrap;rounded=0;" vertex="1" parent="1">
          <mxGeometry x="353" y="780" width="120" height="20" as="geometry" />
        </mxCell>
        <mxCell id="L-UsCcMy-2WCmRjj-p1g-80" value="行情接收层公有子网B" style="text;html=1;strokeColor=none;fillColor=none;align=center;verticalAlign=middle;whiteSpace=wrap;rounded=0;" vertex="1" parent="1">
          <mxGeometry x="699" y="780" width="120" height="20" as="geometry" />
        </mxCell>
        <mxCell id="L-UsCcMy-2WCmRjj-p1g-81" value="fiu" style="rounded=1;whiteSpace=wrap;html=1;" vertex="1" parent="1">
          <mxGeometry x="371.75" y="815" width="142" height="20" as="geometry" />
        </mxCell>
        <mxCell id="L-UsCcMy-2WCmRjj-p1g-82" value="fiu" style="rounded=1;whiteSpace=wrap;html=1;" vertex="1" parent="1">
          <mxGeometry x="645" y="815" width="142" height="20" as="geometry" />
        </mxCell>
        <mxCell id="L-UsCcMy-2WCmRjj-p1g-83" value="min 1/5/15/30/60/120" style="rounded=1;whiteSpace=wrap;html=1;" vertex="1" parent="1">
          <mxGeometry x="371.75" y="892" width="142" height="20" as="geometry" />
        </mxCell>
        <mxCell id="L-UsCcMy-2WCmRjj-p1g-84" value="daily" style="rounded=1;whiteSpace=wrap;html=1;" vertex="1" parent="1">
          <mxGeometry x="371.75" y="922" width="68.25" height="20" as="geometry" />
        </mxCell>
        <mxCell id="L-UsCcMy-2WCmRjj-p1g-85" value="weekly" style="rounded=1;whiteSpace=wrap;html=1;" vertex="1" parent="1">
          <mxGeometry x="446.75" y="922" width="68.25" height="20" as="geometry" />
        </mxCell>
        <mxCell id="L-UsCcMy-2WCmRjj-p1g-86" value="monthly" style="rounded=1;whiteSpace=wrap;html=1;" vertex="1" parent="1">
          <mxGeometry x="371.75" y="952" width="68.25" height="20" as="geometry" />
        </mxCell>
        <mxCell id="L-UsCcMy-2WCmRjj-p1g-87" value="yearly" style="rounded=1;whiteSpace=wrap;html=1;" vertex="1" parent="1">
          <mxGeometry x="446.75" y="952" width="68.25" height="20" as="geometry" />
        </mxCell>
        <mxCell id="L-UsCcMy-2WCmRjj-p1g-88" value="min 1/5/15/30/60/120" style="rounded=1;whiteSpace=wrap;html=1;" vertex="1" parent="1">
          <mxGeometry x="650" y="892" width="142" height="20" as="geometry" />
        </mxCell>
        <mxCell id="L-UsCcMy-2WCmRjj-p1g-89" value="daily" style="rounded=1;whiteSpace=wrap;html=1;" vertex="1" parent="1">
          <mxGeometry x="650" y="922" width="68.25" height="20" as="geometry" />
        </mxCell>
        <mxCell id="L-UsCcMy-2WCmRjj-p1g-90" value="weekly" style="rounded=1;whiteSpace=wrap;html=1;" vertex="1" parent="1">
          <mxGeometry x="725" y="922" width="68.25" height="20" as="geometry" />
        </mxCell>
        <mxCell id="L-UsCcMy-2WCmRjj-p1g-91" value="monthly" style="rounded=1;whiteSpace=wrap;html=1;" vertex="1" parent="1">
          <mxGeometry x="650" y="952" width="68.25" height="20" as="geometry" />
        </mxCell>
        <mxCell id="L-UsCcMy-2WCmRjj-p1g-92" value="yearly" style="rounded=1;whiteSpace=wrap;html=1;" vertex="1" parent="1">
          <mxGeometry x="725" y="952" width="68.25" height="20" as="geometry" />
        </mxCell>
        <mxCell id="L-UsCcMy-2WCmRjj-p1g-93" value="行情接收层私有子网A" style="text;html=1;strokeColor=none;fillColor=none;align=center;verticalAlign=middle;whiteSpace=wrap;rounded=0;" vertex="1" parent="1">
          <mxGeometry x="353" y="867" width="120" height="20" as="geometry" />
        </mxCell>
        <mxCell id="L-UsCcMy-2WCmRjj-p1g-94" value="行情接收层私有子网B" style="text;html=1;strokeColor=none;fillColor=none;align=center;verticalAlign=middle;whiteSpace=wrap;rounded=0;" vertex="1" parent="1">
          <mxGeometry x="700" y="867" width="120" height="20" as="geometry" />
        </mxCell>
        <mxCell id="L-UsCcMy-2WCmRjj-p1g-95" value="行情报价" style="rounded=1;whiteSpace=wrap;html=1;" vertex="1" parent="1">
          <mxGeometry x="371.75" y="982" width="68.25" height="20" as="geometry" />
        </mxCell>
        <mxCell id="L-UsCcMy-2WCmRjj-p1g-96" value="receiver" style="rounded=1;whiteSpace=wrap;html=1;" vertex="1" parent="1">
          <mxGeometry x="445.5" y="982" width="68.25" height="20" as="geometry" />
        </mxCell>
        <mxCell id="L-UsCcMy-2WCmRjj-p1g-98" value="rank" style="rounded=1;whiteSpace=wrap;html=1;" vertex="1" parent="1">
          <mxGeometry x="371.75" y="1012" width="68.25" height="20" as="geometry" />
        </mxCell>
        <mxCell id="L-UsCcMy-2WCmRjj-p1g-99" value="行情报价" style="rounded=1;whiteSpace=wrap;html=1;" vertex="1" parent="1">
          <mxGeometry x="650" y="982" width="68.25" height="20" as="geometry" />
        </mxCell>
        <mxCell id="L-UsCcMy-2WCmRjj-p1g-100" value="receiver" style="rounded=1;whiteSpace=wrap;html=1;" vertex="1" parent="1">
          <mxGeometry x="723.75" y="982" width="68.25" height="20" as="geometry" />
        </mxCell>
        <mxCell id="L-UsCcMy-2WCmRjj-p1g-102" value="机器手" style="rounded=1;whiteSpace=wrap;html=1;" vertex="1" parent="1">
          <mxGeometry x="445.25" y="1012" width="68.25" height="20" as="geometry" />
        </mxCell>
        <mxCell id="L-UsCcMy-2WCmRjj-p1g-104" value="uts" style="rounded=1;whiteSpace=wrap;html=1;" vertex="1" parent="1">
          <mxGeometry x="372.38" y="1042" width="68.25" height="20" as="geometry" />
        </mxCell>
        <mxCell id="L-UsCcMy-2WCmRjj-p1g-105" value="rank" style="rounded=1;whiteSpace=wrap;html=1;" vertex="1" parent="1">
          <mxGeometry x="650.25" y="1012" width="68.25" height="20" as="geometry" />
        </mxCell>
        <mxCell id="L-UsCcMy-2WCmRjj-p1g-106" value="机器手" style="rounded=1;whiteSpace=wrap;html=1;" vertex="1" parent="1">
          <mxGeometry x="723.75" y="1012" width="68.25" height="20" as="geometry" />
        </mxCell>
        <mxCell id="L-UsCcMy-2WCmRjj-p1g-107" value="uts" style="rounded=1;whiteSpace=wrap;html=1;" vertex="1" parent="1">
          <mxGeometry x="650.88" y="1042" width="68.25" height="20" as="geometry" />
        </mxCell>
        <mxCell id="L-UsCcMy-2WCmRjj-p1g-108" value="中间件" style="fillColor=#EFF0F3;strokeColor=none;dashed=0;verticalAlign=top;fontStyle=0;fontColor=#232F3D;" vertex="1" parent="1">
          <mxGeometry x="356" y="1090" width="470" height="210" as="geometry" />
        </mxCell>
        <mxCell id="L-UsCcMy-2WCmRjj-p1g-109" value="中间件私有子网A" style="text;html=1;strokeColor=none;fillColor=none;align=center;verticalAlign=middle;whiteSpace=wrap;rounded=0;" vertex="1" parent="1">
          <mxGeometry x="353" y="1090" width="120" height="20" as="geometry" />
        </mxCell>
        <mxCell id="L-UsCcMy-2WCmRjj-p1g-110" value="中间件私有子网B" style="text;html=1;strokeColor=none;fillColor=none;align=center;verticalAlign=middle;whiteSpace=wrap;rounded=0;" vertex="1" parent="1">
          <mxGeometry x="705" y="1090" width="120" height="20" as="geometry" />
        </mxCell>
        <mxCell id="L-UsCcMy-2WCmRjj-p1g-112" value="文件服务minio" style="rounded=1;whiteSpace=wrap;html=1;" vertex="1" parent="1">
          <mxGeometry x="371.75" y="1120" width="142" height="20" as="geometry" />
        </mxCell>
        <mxCell id="L-UsCcMy-2WCmRjj-p1g-114" value="kafka" style="rounded=1;whiteSpace=wrap;html=1;" vertex="1" parent="1">
          <mxGeometry x="372.38" y="1150" width="68.25" height="20" as="geometry" />
        </mxCell>
        <mxCell id="L-UsCcMy-2WCmRjj-p1g-115" value="rocketmq" style="rounded=1;whiteSpace=wrap;html=1;" vertex="1" parent="1">
          <mxGeometry x="449.88" y="1150" width="68.25" height="20" as="geometry" />
        </mxCell>
        <mxCell id="L-UsCcMy-2WCmRjj-p1g-117" value="nacos" style="rounded=1;whiteSpace=wrap;html=1;" vertex="1" parent="1">
          <mxGeometry x="372.38" y="1180" width="68.25" height="20" as="geometry" />
        </mxCell>
        <mxCell id="L-UsCcMy-2WCmRjj-p1g-118" value="apollo" style="rounded=1;whiteSpace=wrap;html=1;" vertex="1" parent="1">
          <mxGeometry x="450" y="1180" width="68.25" height="20" as="geometry" />
        </mxCell>
        <mxCell id="L-UsCcMy-2WCmRjj-p1g-119" value="xxl-job-admin" style="rounded=1;whiteSpace=wrap;html=1;" vertex="1" parent="1">
          <mxGeometry x="372.38" y="1210" width="77.62" height="20" as="geometry" />
        </mxCell>
        <mxCell id="L-UsCcMy-2WCmRjj-p1g-120" value="zookeeper" style="rounded=1;whiteSpace=wrap;html=1;" vertex="1" parent="1">
          <mxGeometry x="453" y="1210" width="67" height="20" as="geometry" />
        </mxCell>
        <mxCell id="L-UsCcMy-2WCmRjj-p1g-121" value="elk" style="rounded=1;whiteSpace=wrap;html=1;" vertex="1" parent="1">
          <mxGeometry x="372.38" y="1240" width="77.62" height="20" as="geometry" />
        </mxCell>
        <mxCell id="L-UsCcMy-2WCmRjj-p1g-122" value="skywalking" style="rounded=1;whiteSpace=wrap;html=1;" vertex="1" parent="1">
          <mxGeometry x="453" y="1240" width="67" height="20" as="geometry" />
        </mxCell>
        <mxCell id="L-UsCcMy-2WCmRjj-p1g-123" value="prometheus" style="rounded=1;whiteSpace=wrap;html=1;" vertex="1" parent="1">
          <mxGeometry x="372.38" y="1270" width="77.62" height="20" as="geometry" />
        </mxCell>
        <mxCell id="L-UsCcMy-2WCmRjj-p1g-124" value="grafana" style="rounded=1;whiteSpace=wrap;html=1;" vertex="1" parent="1">
          <mxGeometry x="453" y="1270" width="67" height="20" as="geometry" />
        </mxCell>
        <mxCell id="L-UsCcMy-2WCmRjj-p1g-125" value="文件服务minio" style="rounded=1;whiteSpace=wrap;html=1;" vertex="1" parent="1">
          <mxGeometry x="655.88" y="1120" width="142" height="20" as="geometry" />
        </mxCell>
        <mxCell id="L-UsCcMy-2WCmRjj-p1g-126" value="kafka" style="rounded=1;whiteSpace=wrap;html=1;" vertex="1" parent="1">
          <mxGeometry x="656.51" y="1150" width="68.25" height="20" as="geometry" />
        </mxCell>
        <mxCell id="L-UsCcMy-2WCmRjj-p1g-127" value="rocketmq" style="rounded=1;whiteSpace=wrap;html=1;" vertex="1" parent="1">
          <mxGeometry x="734.01" y="1150" width="68.25" height="20" as="geometry" />
        </mxCell>
        <mxCell id="L-UsCcMy-2WCmRjj-p1g-128" value="nacos" style="rounded=1;whiteSpace=wrap;html=1;" vertex="1" parent="1">
          <mxGeometry x="656.51" y="1180" width="68.25" height="20" as="geometry" />
        </mxCell>
        <mxCell id="L-UsCcMy-2WCmRjj-p1g-129" value="apollo" style="rounded=1;whiteSpace=wrap;html=1;" vertex="1" parent="1">
          <mxGeometry x="734.13" y="1180" width="68.25" height="20" as="geometry" />
        </mxCell>
        <mxCell id="L-UsCcMy-2WCmRjj-p1g-130" value="xxl-job-admin" style="rounded=1;whiteSpace=wrap;html=1;" vertex="1" parent="1">
          <mxGeometry x="656.51" y="1210" width="77.62" height="20" as="geometry" />
        </mxCell>
        <mxCell id="L-UsCcMy-2WCmRjj-p1g-131" value="zookeeper" style="rounded=1;whiteSpace=wrap;html=1;" vertex="1" parent="1">
          <mxGeometry x="737.13" y="1210" width="67" height="20" as="geometry" />
        </mxCell>
        <mxCell id="L-UsCcMy-2WCmRjj-p1g-132" value="elk" style="rounded=1;whiteSpace=wrap;html=1;" vertex="1" parent="1">
          <mxGeometry x="656.51" y="1240" width="77.62" height="20" as="geometry" />
        </mxCell>
        <mxCell id="L-UsCcMy-2WCmRjj-p1g-133" value="skywalking" style="rounded=1;whiteSpace=wrap;html=1;" vertex="1" parent="1">
          <mxGeometry x="737.13" y="1240" width="67" height="20" as="geometry" />
        </mxCell>
        <mxCell id="L-UsCcMy-2WCmRjj-p1g-134" value="prometheus" style="rounded=1;whiteSpace=wrap;html=1;" vertex="1" parent="1">
          <mxGeometry x="656.51" y="1270" width="77.62" height="20" as="geometry" />
        </mxCell>
        <mxCell id="L-UsCcMy-2WCmRjj-p1g-135" value="grafana" style="rounded=1;whiteSpace=wrap;html=1;" vertex="1" parent="1">
          <mxGeometry x="737.13" y="1270" width="67" height="20" as="geometry" />
        </mxCell>
        <mxCell id="L-UsCcMy-2WCmRjj-p1g-136" value="数据库层" style="fillColor=#EFF0F3;strokeColor=none;dashed=0;verticalAlign=top;fontStyle=0;fontColor=#232F3D;" vertex="1" parent="1">
          <mxGeometry x="356" y="1320" width="470" height="270" as="geometry" />
        </mxCell>
        <mxCell id="L-UsCcMy-2WCmRjj-p1g-137" value="数据库私有子网A" style="text;html=1;strokeColor=none;fillColor=none;align=center;verticalAlign=middle;whiteSpace=wrap;rounded=0;" vertex="1" parent="1">
          <mxGeometry x="351.19" y="1320" width="120" height="20" as="geometry" />
        </mxCell>
        <mxCell id="L-UsCcMy-2WCmRjj-p1g-138" value="数据库私有子网B" style="text;html=1;strokeColor=none;fillColor=none;align=center;verticalAlign=middle;whiteSpace=wrap;rounded=0;" vertex="1" parent="1">
          <mxGeometry x="705" y="1320" width="120" height="20" as="geometry" />
        </mxCell>
        <mxCell id="L-UsCcMy-2WCmRjj-p1g-139" value="" style="points=[[0,0,0],[0.25,0,0],[0.5,0,0],[0.75,0,0],[1,0,0],[0,1,0],[0.25,1,0],[0.5,1,0],[0.75,1,0],[1,1,0],[0,0.25,0],[0,0.5,0],[0,0.75,0],[1,0.25,0],[1,0.5,0],[1,0.75,0]];outlineConnect=0;fontColor=#232F3E;gradientColor=#4D72F3;gradientDirection=north;fillColor=#3334B9;strokeColor=#ffffff;dashed=0;verticalLabelPosition=bottom;verticalAlign=top;align=center;html=1;fontSize=12;fontStyle=0;aspect=fixed;shape=mxgraph.aws4.resourceIcon;resIcon=mxgraph.aws4.database;" vertex="1" parent="1">
          <mxGeometry x="423" y="1350" width="30" height="30" as="geometry" />
        </mxCell>
        <mxCell id="L-UsCcMy-2WCmRjj-p1g-140" value="业务数据&lt;br&gt;RDS主" style="text;html=1;strokeColor=none;fillColor=none;align=center;verticalAlign=middle;whiteSpace=wrap;rounded=0;" vertex="1" parent="1">
          <mxGeometry x="462" y="1355" width="56.25" height="20" as="geometry" />
        </mxCell>
        <mxCell id="L-UsCcMy-2WCmRjj-p1g-143" value="" style="points=[[0,0,0],[0.25,0,0],[0.5,0,0],[0.75,0,0],[1,0,0],[0,1,0],[0.25,1,0],[0.5,1,0],[0.75,1,0],[1,1,0],[0,0.25,0],[0,0.5,0],[0,0.75,0],[1,0.25,0],[1,0.5,0],[1,0.75,0]];outlineConnect=0;fontColor=#232F3E;gradientColor=#4D72F3;gradientDirection=north;fillColor=#3334B9;strokeColor=#ffffff;dashed=0;verticalLabelPosition=bottom;verticalAlign=top;align=center;html=1;fontSize=12;fontStyle=0;aspect=fixed;shape=mxgraph.aws4.resourceIcon;resIcon=mxgraph.aws4.database;" vertex="1" parent="1">
          <mxGeometry x="423" y="1400" width="30" height="30" as="geometry" />
        </mxCell>
        <mxCell id="L-UsCcMy-2WCmRjj-p1g-144" value="行情数据&lt;br&gt;RDS主" style="text;html=1;strokeColor=none;fillColor=none;align=center;verticalAlign=middle;whiteSpace=wrap;rounded=0;" vertex="1" parent="1">
          <mxGeometry x="463.75" y="1405" width="56.25" height="20" as="geometry" />
        </mxCell>
        <mxCell id="L-UsCcMy-2WCmRjj-p1g-147" value="" style="aspect=fixed;html=1;points=[];align=center;image;fontSize=12;image=img/lib/mscae/Cache_Redis_Product.svg;" vertex="1" parent="1">
          <mxGeometry x="382.29" y="1450" width="35.71" height="30" as="geometry" />
        </mxCell>
        <mxCell id="L-UsCcMy-2WCmRjj-p1g-148" value="kline storage redis" style="text;html=1;strokeColor=none;fillColor=none;align=center;verticalAlign=middle;whiteSpace=wrap;rounded=0;" vertex="1" parent="1">
          <mxGeometry x="361.26" y="1490" width="79.37" height="20" as="geometry" />
        </mxCell>
        <mxCell id="L-UsCcMy-2WCmRjj-p1g-149" value="" style="aspect=fixed;html=1;points=[];align=center;image;fontSize=12;image=img/lib/mscae/Cache_Redis_Product.svg;" vertex="1" parent="1">
          <mxGeometry x="454.03000000000003" y="1450" width="35.71" height="30" as="geometry" />
        </mxCell>
        <mxCell id="L-UsCcMy-2WCmRjj-p1g-150" value="kline redis" style="text;html=1;strokeColor=none;fillColor=none;align=center;verticalAlign=middle;whiteSpace=wrap;rounded=0;" vertex="1" parent="1">
          <mxGeometry x="433" y="1490" width="79.37" height="20" as="geometry" />
        </mxCell>
        <mxCell id="L-UsCcMy-2WCmRjj-p1g-151" value="" style="aspect=fixed;html=1;points=[];align=center;image;fontSize=12;image=img/lib/mscae/Cache_Redis_Product.svg;" vertex="1" parent="1">
          <mxGeometry x="521.03" y="1450" width="35.71" height="30" as="geometry" />
        </mxCell>
        <mxCell id="L-UsCcMy-2WCmRjj-p1g-152" value="业务&lt;br&gt;redis" style="text;html=1;strokeColor=none;fillColor=none;align=center;verticalAlign=middle;whiteSpace=wrap;rounded=0;" vertex="1" parent="1">
          <mxGeometry x="500" y="1490" width="79.37" height="20" as="geometry" />
        </mxCell>
        <mxCell id="L-UsCcMy-2WCmRjj-p1g-153" value="" style="aspect=fixed;html=1;points=[];align=center;image;fontSize=12;image=img/lib/mscae/Cache_Redis_Product.svg;" vertex="1" parent="1">
          <mxGeometry x="642.92" y="1450" width="35.71" height="30" as="geometry" />
        </mxCell>
        <mxCell id="L-UsCcMy-2WCmRjj-p1g-154" value="kline storage redis" style="text;html=1;strokeColor=none;fillColor=none;align=center;verticalAlign=middle;whiteSpace=wrap;rounded=0;" vertex="1" parent="1">
          <mxGeometry x="621.89" y="1490" width="79.37" height="20" as="geometry" />
        </mxCell>
        <mxCell id="L-UsCcMy-2WCmRjj-p1g-155" value="" style="aspect=fixed;html=1;points=[];align=center;image;fontSize=12;image=img/lib/mscae/Cache_Redis_Product.svg;" vertex="1" parent="1">
          <mxGeometry x="714.66" y="1450" width="35.71" height="30" as="geometry" />
        </mxCell>
        <mxCell id="L-UsCcMy-2WCmRjj-p1g-156" value="kline redis" style="text;html=1;strokeColor=none;fillColor=none;align=center;verticalAlign=middle;whiteSpace=wrap;rounded=0;" vertex="1" parent="1">
          <mxGeometry x="693.63" y="1490" width="79.37" height="20" as="geometry" />
        </mxCell>
        <mxCell id="L-UsCcMy-2WCmRjj-p1g-157" value="" style="aspect=fixed;html=1;points=[];align=center;image;fontSize=12;image=img/lib/mscae/Cache_Redis_Product.svg;" vertex="1" parent="1">
          <mxGeometry x="781.66" y="1450" width="35.71" height="30" as="geometry" />
        </mxCell>
        <mxCell id="L-UsCcMy-2WCmRjj-p1g-158" value="业务&lt;br&gt;redis" style="text;html=1;strokeColor=none;fillColor=none;align=center;verticalAlign=middle;whiteSpace=wrap;rounded=0;" vertex="1" parent="1">
          <mxGeometry x="760.63" y="1490" width="79.37" height="20" as="geometry" />
        </mxCell>
        <mxCell id="L-UsCcMy-2WCmRjj-p1g-159" value="" style="points=[[0,0,0],[0.25,0,0],[0.5,0,0],[0.75,0,0],[1,0,0],[0,1,0],[0.25,1,0],[0.5,1,0],[0.75,1,0],[1,1,0],[0,0.25,0],[0,0.5,0],[0,0.75,0],[1,0.25,0],[1,0.5,0],[1,0.75,0]];outlineConnect=0;fontColor=#232F3E;gradientColor=#4D72F3;gradientDirection=north;fillColor=#3334B9;strokeColor=#ffffff;dashed=0;verticalLabelPosition=bottom;verticalAlign=top;align=center;html=1;fontSize=12;fontStyle=0;aspect=fixed;shape=mxgraph.aws4.resourceIcon;resIcon=mxgraph.aws4.database;" vertex="1" parent="1">
          <mxGeometry x="693.63" y="1350" width="30" height="30" as="geometry" />
        </mxCell>
        <mxCell id="L-UsCcMy-2WCmRjj-p1g-160" value="业务数据&lt;br&gt;RDS从" style="text;html=1;strokeColor=none;fillColor=none;align=center;verticalAlign=middle;whiteSpace=wrap;rounded=0;" vertex="1" parent="1">
          <mxGeometry x="732.63" y="1355" width="56.25" height="20" as="geometry" />
        </mxCell>
        <mxCell id="L-UsCcMy-2WCmRjj-p1g-161" value="" style="points=[[0,0,0],[0.25,0,0],[0.5,0,0],[0.75,0,0],[1,0,0],[0,1,0],[0.25,1,0],[0.5,1,0],[0.75,1,0],[1,1,0],[0,0.25,0],[0,0.5,0],[0,0.75,0],[1,0.25,0],[1,0.5,0],[1,0.75,0]];outlineConnect=0;fontColor=#232F3E;gradientColor=#4D72F3;gradientDirection=north;fillColor=#3334B9;strokeColor=#ffffff;dashed=0;verticalLabelPosition=bottom;verticalAlign=top;align=center;html=1;fontSize=12;fontStyle=0;aspect=fixed;shape=mxgraph.aws4.resourceIcon;resIcon=mxgraph.aws4.database;" vertex="1" parent="1">
          <mxGeometry x="693.63" y="1400" width="30" height="30" as="geometry" />
        </mxCell>
        <mxCell id="L-UsCcMy-2WCmRjj-p1g-162" value="行情数据&lt;br&gt;RDS从" style="text;html=1;strokeColor=none;fillColor=none;align=center;verticalAlign=middle;whiteSpace=wrap;rounded=0;" vertex="1" parent="1">
          <mxGeometry x="734.38" y="1405" width="56.25" height="20" as="geometry" />
        </mxCell>
        <mxCell id="L-UsCcMy-2WCmRjj-p1g-163" value="" style="dashed=0;outlineConnect=0;html=1;align=center;labelPosition=center;verticalLabelPosition=bottom;verticalAlign=top;shape=mxgraph.webicons.mongodb;gradientColor=#DFDEDE" vertex="1" parent="1">
          <mxGeometry x="445.25" y="1530" width="36" height="40" as="geometry" />
        </mxCell>
        <mxCell id="L-UsCcMy-2WCmRjj-p1g-164" value="mongodb 主库" style="text;html=1;strokeColor=none;fillColor=none;align=center;verticalAlign=middle;whiteSpace=wrap;rounded=0;" vertex="1" parent="1">
          <mxGeometry x="486.75" y="1540" width="56.25" height="20" as="geometry" />
        </mxCell>
        <mxCell id="L-UsCcMy-2WCmRjj-p1g-165" value="" style="dashed=0;outlineConnect=0;html=1;align=center;labelPosition=center;verticalLabelPosition=bottom;verticalAlign=top;shape=mxgraph.webicons.mongodb;gradientColor=#DFDEDE" vertex="1" parent="1">
          <mxGeometry x="689.25" y="1530" width="36" height="40" as="geometry" />
        </mxCell>
        <mxCell id="L-UsCcMy-2WCmRjj-p1g-166" value="mongodb 从库" style="text;html=1;strokeColor=none;fillColor=none;align=center;verticalAlign=middle;whiteSpace=wrap;rounded=0;" vertex="1" parent="1">
          <mxGeometry x="730.75" y="1540" width="56.25" height="20" as="geometry" />
        </mxCell>
        <mxCell id="L-UsCcMy-2WCmRjj-p1g-167" value="AWS Network Load Balancer" style="text;html=1;strokeColor=none;fillColor=none;align=center;verticalAlign=middle;whiteSpace=wrap;rounded=0;" vertex="1" parent="1">
          <mxGeometry x="506" y="226" width="170" height="20" as="geometry" />
        </mxCell>
      </root>
    </mxGraphModel>
  </diagram>
</mxfile>
